<svg width="18" height="18" viewBox="0 0 18 18" fill="none" xmlns="http://www.w3.org/2000/svg">
<path d="M2.54175 0.666687C1.51362 0.666687 0.666748 1.51356 0.666748 2.54169V13.375C0.666748 14.4031 1.51362 15.25 2.54175 15.25H13.3751C14.4032 15.25 15.2501 14.4031 15.2501 13.375V2.54169C15.2501 1.51356 14.4032 0.666687 13.3751 0.666687H2.54175ZM2.54175 1.91669H13.3751C13.7278 1.91669 14.0001 2.18898 14.0001 2.54169V13.375C14.0001 13.7277 13.7278 14 13.3751 14H2.54175C2.18904 14 1.91675 13.7277 1.91675 13.375V2.54169C1.91675 2.18898 2.18904 1.91669 2.54175 1.91669ZM16.0834 2.86477V13.7917C16.0834 15.055 15.0555 16.0834 13.7917 16.0834H2.86483C3.12358 16.8092 3.81133 17.3334 4.62508 17.3334H13.7917C15.7447 17.3334 17.3334 15.7446 17.3334 13.7917V4.62502C17.3334 3.81127 16.8092 3.12393 16.0834 2.86477ZM10.8629 5.24432C10.7006 5.24905 10.5465 5.31677 10.4332 5.43313L7.12508 8.74123L5.90031 7.51646C5.84272 7.45648 5.77374 7.40859 5.69741 7.3756C5.62108 7.34261 5.53893 7.32518 5.45578 7.32434C5.37263 7.32349 5.29015 7.33925 5.21317 7.37068C5.13618 7.40211 5.06624 7.44858 5.00744 7.50738C4.94864 7.56618 4.90217 7.63612 4.87074 7.71311C4.83931 7.79009 4.82355 7.87257 4.8244 7.95572C4.82524 8.03887 4.84267 8.12102 4.87566 8.19735C4.90865 8.27368 4.95654 8.34266 5.01652 8.40025L6.68319 10.0669C6.8004 10.1841 6.95935 10.2499 7.12508 10.2499C7.29081 10.2499 7.44976 10.1841 7.56698 10.0669L11.317 6.31692C11.4071 6.2291 11.4687 6.11611 11.4936 5.99273C11.5185 5.86936 11.5055 5.74134 11.4565 5.62544C11.4074 5.50953 11.3245 5.41114 11.2186 5.34314C11.1127 5.27514 10.9887 5.2407 10.8629 5.24432Z" fill="#0F0743"/>
</svg>
