<svg width="14" height="18" viewBox="0 0 14 18" fill="none" xmlns="http://www.w3.org/2000/svg">
<path d="M7.0048 0.0579224C4.90726 0.0579224 3.10599 1.3486 2.34985 3.17967C2.15288 3.21277 1.99992 3.37698 1.99992 3.58331V4.83331C1.99992 5.06331 2.18659 5.24998 2.41658 5.24998H2.83325C2.84075 5.24998 2.84701 5.2463 2.85441 5.24591C3.06297 7.34735 4.84547 8.99998 6.99992 8.99998C9.15299 8.99998 10.935 7.34952 11.1454 5.24998H11.5833C11.8133 5.24998 11.9999 5.06331 11.9999 4.83331V3.58331C11.9999 3.38131 11.8531 3.22016 11.6622 3.18211C10.9067 1.34845 9.10335 0.0579224 7.0048 0.0579224ZM7.0048 1.30792C8.39641 1.30792 9.60441 2.05539 10.2633 3.16665H3.74634C4.40484 2.05511 5.61314 1.30792 7.0048 1.30792ZM4.11499 4.41665H9.88403C9.90353 4.55296 9.91658 4.69129 9.91658 4.83331C9.91658 6.4513 8.61791 7.74998 6.99992 7.74998C5.38193 7.74998 4.08325 6.4513 4.08325 4.83331C4.08325 4.6912 4.0954 4.55274 4.11499 4.41665ZM2.20825 10.6666C1.18013 10.6666 0.333252 11.5135 0.333252 12.5416V13.0413C0.333252 14.2667 1.11022 15.3658 2.29533 16.1216C3.48044 16.8773 5.10194 17.3333 6.99992 17.3333C8.8979 17.3333 10.5194 16.8773 11.7045 16.1216C12.8896 15.3658 13.6666 14.2667 13.6666 13.0413V12.5416C13.6666 11.5135 12.8197 10.6666 11.7916 10.6666H2.20825ZM4.08325 11.9166H9.91658V12.3333C9.91658 12.7937 10.2895 13.1666 10.7499 13.1666H12.4068C12.3564 13.823 11.9137 14.5056 11.0323 15.0677C10.0949 15.6655 8.69527 16.0833 6.99992 16.0833C5.30457 16.0833 3.90492 15.6655 2.96753 15.0677C2.08617 14.5056 1.64339 13.823 1.59302 13.1666H3.24992C3.71034 13.1666 4.08325 12.7937 4.08325 12.3333V11.9166Z" fill="#0F0743"/>
</svg>
