<svg width="18" height="18" viewBox="0 0 18 18" fill="none" xmlns="http://www.w3.org/2000/svg">
<path d="M9.00008 0.665833C4.4052 0.665833 0.666748 4.40429 0.666748 8.99917C0.666748 10.3639 1.02621 11.6395 1.60913 12.7768L0.705811 16.0109C0.495414 16.7623 1.23838 17.5052 1.98999 17.2951L5.22648 16.3917C6.36289 16.9734 7.63664 17.3325 9.00008 17.3325C13.595 17.3325 17.3334 13.594 17.3334 8.99917C17.3334 4.40429 13.595 0.665833 9.00008 0.665833ZM9.00008 1.91583C12.9194 1.91583 16.0834 5.07988 16.0834 8.99917C16.0834 12.9185 12.9194 16.0825 9.00008 16.0825C7.74942 16.0825 6.5795 15.7573 5.55933 15.1889C5.41553 15.1088 5.24591 15.0886 5.08732 15.1328L2.00952 15.9914L2.8689 12.9152C2.91329 12.7563 2.89311 12.5864 2.81274 12.4424C2.24327 11.4214 1.91675 10.251 1.91675 8.99917C1.91675 5.07988 5.08079 1.91583 9.00008 1.91583ZM5.45842 6.91583C5.3756 6.91466 5.29337 6.92996 5.21651 6.96085C5.13966 6.99173 5.06971 7.03758 5.01073 7.09573C4.95175 7.15389 4.90491 7.22318 4.87294 7.29959C4.84098 7.376 4.82451 7.458 4.82451 7.54083C4.82451 7.62366 4.84098 7.70566 4.87294 7.78207C4.90491 7.85848 4.95175 7.92778 5.01073 7.98593C5.06971 8.04409 5.13966 8.08994 5.21651 8.12082C5.29337 8.1517 5.3756 8.167 5.45842 8.16583H12.5417C12.6246 8.167 12.7068 8.1517 12.7837 8.12082C12.8605 8.08994 12.9305 8.04409 12.9894 7.98593C13.0484 7.92778 13.0953 7.85848 13.1272 7.78207C13.1592 7.70566 13.1756 7.62366 13.1756 7.54083C13.1756 7.458 13.1592 7.376 13.1272 7.29959C13.0953 7.22318 13.0484 7.15389 12.9894 7.09573C12.9305 7.03758 12.8605 6.99173 12.7837 6.96085C12.7068 6.92996 12.6246 6.91466 12.5417 6.91583H5.45842ZM5.45842 9.8325C5.3756 9.83133 5.29337 9.84663 5.21651 9.87751C5.13966 9.9084 5.06971 9.95425 5.01073 10.0124C4.95175 10.0706 4.90491 10.1398 4.87294 10.2163C4.84098 10.2927 4.82451 10.3747 4.82451 10.4575C4.82451 10.5403 4.84098 10.6223 4.87294 10.6987C4.90491 10.7752 4.95175 10.8444 5.01073 10.9026C5.06971 10.9608 5.13966 11.0066 5.21651 11.0375C5.29337 11.0684 5.3756 11.0837 5.45842 11.0825H10.8751C10.9579 11.0837 11.0401 11.0684 11.117 11.0375C11.1938 11.0066 11.2638 10.9608 11.3228 10.9026C11.3818 10.8444 11.4286 10.7752 11.4606 10.6987C11.4925 10.6223 11.509 10.5403 11.509 10.4575C11.509 10.3747 11.4925 10.2927 11.4606 10.2163C11.4286 10.1398 11.3818 10.0706 11.3228 10.0124C11.2638 9.95425 11.1938 9.9084 11.117 9.87751C11.0401 9.84663 10.9579 9.83133 10.8751 9.8325H5.45842Z" fill="black"/>
</svg>
