<svg width="19" height="18" viewBox="0 0 19 18" fill="none" xmlns="http://www.w3.org/2000/svg">
<path d="M5.87508 0.083313C5.70933 0.0833296 5.55036 0.149183 5.43316 0.26639C5.31595 0.383596 5.2501 0.542558 5.25008 0.708313V3.83331H3.79175C2.06841 3.83331 0.666748 5.23498 0.666748 6.95831V12.7916C0.666748 14.515 2.06841 15.9166 3.79175 15.9166H9.31991C9.02241 15.5366 8.77175 15.1183 8.58341 14.6666H3.79175C2.758 14.6666 1.91675 13.8254 1.91675 12.7916V6.95831C1.91675 5.92456 2.758 5.08331 3.79175 5.08331H14.2084C15.2422 5.08331 16.0834 5.92456 16.0834 6.95831V7.78107C16.543 8.02065 16.963 8.32448 17.3334 8.68032V6.95831C17.3334 5.23498 15.9317 3.83331 14.2084 3.83331H12.7501V0.708313C12.7501 0.542558 12.6842 0.383596 12.567 0.26639C12.4498 0.149183 12.2908 0.0833296 12.1251 0.083313H5.87508ZM6.50008 1.33331H11.5001V3.83331H6.50008V1.33331ZM12.1853 8.21401C11.8905 8.24915 11.6221 8.45493 11.5367 8.77472L11.3992 9.28823C11.3163 9.59781 11.0482 9.82265 10.7286 9.85056L10.1996 9.89695C9.67171 9.94279 9.35046 10.4985 9.57463 10.9785L9.79923 11.4603C9.93465 11.7511 9.87414 12.0954 9.64705 12.3221L9.27108 12.6981C8.89649 13.0726 9.00836 13.7056 9.48836 13.9293L9.97013 14.154C10.261 14.2894 10.4359 14.592 10.408 14.9116L10.3608 15.4414C10.3145 15.9689 10.8074 16.3817 11.3186 16.2446L11.8321 16.1063C12.1421 16.0229 12.4703 16.1428 12.6541 16.4057L12.9592 16.8411C13.2626 17.2749 13.9047 17.2749 14.2084 16.8411L14.5128 16.4057C14.6965 16.1432 15.0255 16.0229 15.3355 16.1063L15.849 16.2446C16.3607 16.3817 16.8523 15.9689 16.8061 15.4414L16.7597 14.9116C16.7313 14.592 16.9067 14.2894 17.1975 14.154L17.6785 13.9293C18.1585 13.7056 18.2703 13.0722 17.8958 12.6981L17.5198 12.3221C17.2927 12.0954 17.2318 11.7511 17.3676 11.4603L17.593 10.9785C17.8168 10.4989 17.4955 9.94279 16.968 9.89695L16.4382 9.85056C16.1186 9.82265 15.8506 9.59823 15.7677 9.28823L15.6301 8.77472C15.4935 8.26305 14.8904 8.04291 14.4566 8.34666L14.0212 8.65183C13.7587 8.836 13.4085 8.836 13.1464 8.65183L12.711 8.34666C12.5485 8.23275 12.3622 8.19292 12.1853 8.21401Z" fill="#0F0743"/>
</svg>
