<svg width="16" height="16" viewBox="0 0 16 16" fill="none" xmlns="http://www.w3.org/2000/svg">
<path d="M2.79167 0.5C1.53343 0.5 0.5 1.53343 0.5 2.79167V13.2083C0.5 14.4666 1.53343 15.5 2.79167 15.5H13.2083C14.4666 15.5 15.5 14.4666 15.5 13.2083V2.79167C15.5 1.53343 14.4666 0.5 13.2083 0.5H2.79167ZM2.79167 1.75H13.2083C13.7909 1.75 14.25 2.20907 14.25 2.79167V13.2083C14.25 13.7909 13.7909 14.25 13.2083 14.25H2.79167C2.20907 14.25 1.75 13.7909 1.75 13.2083V2.79167C1.75 2.20907 2.20907 1.75 2.79167 1.75ZM12.3628 4.66097C12.2005 4.6657 12.0464 4.73341 11.9331 4.84977L6.54167 10.2412L4.48356 8.18311C4.42597 8.12312 4.35699 8.07524 4.28066 8.04225C4.20433 8.00926 4.12218 7.99183 4.03904 7.99098C3.95589 7.99014 3.8734 8.00589 3.79642 8.03732C3.71943 8.06875 3.64949 8.11523 3.5907 8.17403C3.5319 8.23283 3.48542 8.30277 3.45399 8.37975C3.42256 8.45674 3.40681 8.53922 3.40765 8.62237C3.4085 8.70552 3.42592 8.78766 3.45891 8.86399C3.4919 8.94032 3.53979 9.0093 3.59977 9.06689L6.09977 11.5669C6.21699 11.6841 6.37593 11.7499 6.54167 11.7499C6.7074 11.7499 6.86635 11.6841 6.98356 11.5669L12.8169 5.73356C12.9071 5.64575 12.9686 5.53276 12.9935 5.40938C13.0184 5.286 13.0055 5.15798 12.9564 5.04208C12.9073 4.92618 12.8244 4.82779 12.7185 4.75979C12.6126 4.69179 12.4886 4.65735 12.3628 4.66097Z" fill="#0F0743"/>
</svg>
