<svg width="14" height="27" viewBox="0 0 14 27" fill="none" xmlns="http://www.w3.org/2000/svg">
<path d="M8 0.5C7.81902 0.500259 7.64151 0.549628 7.48638 0.642842C7.33125 0.736056 7.20433 0.869621 7.11914 1.0293H7.11719L0.142578 13.9844L0.144531 13.9863C0.0507161 14.1413 0.000760295 14.3188 0 14.5C0 14.7652 0.105357 15.0196 0.292893 15.2071C0.48043 15.3946 0.734784 15.5 1 15.5H5V25.5C5 25.7652 5.10536 26.0196 5.29289 26.2071C5.48043 26.3946 5.73478 26.5 6 26.5C6.18445 26.4998 6.36526 26.4487 6.52244 26.3522C6.67962 26.2557 6.80705 26.1175 6.89062 25.9531H6.89258L13.9062 12.9238L13.9023 12.918C13.9621 12.7898 14 12.6507 14 12.5C14 11.948 13.552 11.5 13 11.5H9V1.5C9 1.23478 8.89464 0.98043 8.70711 0.792893C8.51957 0.605357 8.26522 0.5 8 0.5Z" fill="#FFD17E"/>
</svg>
