<svg width="17" height="17" viewBox="0 0 17 17" fill="none" xmlns="http://www.w3.org/2000/svg">
<path d="M2.08333 0.5C1.72971 0.5 1.39057 0.640476 1.14052 0.890524C0.890476 1.14057 0.75 1.47971 0.75 1.83333C0.750185 2.0672 0.811881 2.29691 0.928896 2.4994C1.04591 2.70189 1.21413 2.87004 1.41667 2.98698V14.0143C1.21432 14.1311 1.04622 14.2991 0.929221 14.5013C0.812217 14.7036 0.750413 14.933 0.75 15.1667C0.75 15.5203 0.890476 15.8594 1.14052 16.1095C1.39057 16.3595 1.72971 16.5 2.08333 16.5C2.3172 16.4998 2.54691 16.4381 2.7494 16.3211C2.95189 16.2041 3.12004 16.0359 3.23698 15.8333H14.2643C14.3811 16.0357 14.5491 16.2038 14.7513 16.3208C14.9536 16.4378 15.183 16.4996 15.4167 16.5C15.7703 16.5 16.1094 16.3595 16.3595 16.1095C16.6095 15.8594 16.75 15.5203 16.75 15.1667C16.7498 14.9328 16.6881 14.7031 16.5711 14.5006C16.4541 14.2981 16.2859 14.13 16.0833 14.013V2.98568C16.2857 2.86885 16.4538 2.70091 16.5708 2.49866C16.6878 2.29642 16.7496 2.06698 16.75 1.83333C16.75 1.47971 16.6095 1.14057 16.3595 0.890524C16.1094 0.640476 15.7703 0.5 15.4167 0.5C15.1828 0.500185 14.9531 0.561881 14.7506 0.678896C14.5481 0.795911 14.38 0.964129 14.263 1.16667H3.23568C3.11885 0.96432 2.95091 0.796225 2.74866 0.679221C2.54642 0.562218 2.31698 0.500413 2.08333 0.5ZM3.23698 2.5H14.2643C14.3808 2.70201 14.5483 2.86992 14.75 2.98698V14.0143C14.548 14.1308 14.3801 14.2983 14.263 14.5H3.23568C3.11916 14.298 2.95169 14.1301 2.75 14.013V2.98568C2.95201 2.86916 3.11992 2.70169 3.23698 2.5ZM5.41667 4.5C5.04867 4.5 4.75 4.79867 4.75 5.16667V9.16667C4.75 9.53467 5.04867 9.83333 5.41667 9.83333H6.08333V7.16667C6.08333 6.43 6.68 5.83333 7.41667 5.83333H10.0833V5.16667C10.0833 4.79867 9.78467 4.5 9.41667 4.5H5.41667ZM8.08333 7.16667C7.71533 7.16667 7.41667 7.46533 7.41667 7.83333V11.8333C7.41667 12.2013 7.71533 12.5 8.08333 12.5H12.0833C12.4513 12.5 12.75 12.2013 12.75 11.8333V7.83333C12.75 7.46533 12.4513 7.16667 12.0833 7.16667H8.08333Z" fill="#0F0743"/>
</svg>
