<svg width="16" height="16" viewBox="0 0 16 16" fill="none" xmlns="http://www.w3.org/2000/svg">
<path d="M12.9999 0.0874023C12.2521 0.0874023 11.5044 0.370891 10.9377 0.937825L1.71488 10.1598C1.53989 10.3348 1.41173 10.5524 1.34378 10.7913L0.107618 15.12C0.0771314 15.2271 0.0758146 15.3404 0.103804 15.4482C0.131792 15.556 0.188071 15.6543 0.266817 15.7331C0.345563 15.8118 0.443918 15.8681 0.551707 15.8961C0.659496 15.9241 0.772806 15.9227 0.879916 15.8923L5.20934 14.6561C5.20961 14.6558 5.20989 14.6555 5.21016 14.6553C5.44746 14.5871 5.66454 14.4605 5.84004 14.285L15.062 5.06217C16.1958 3.92837 16.1958 2.07163 15.062 0.937825C14.4954 0.370891 13.7477 0.0874023 12.9999 0.0874023ZM12.9999 1.33008C13.4252 1.33008 13.8499 1.49397 14.1774 1.82161C14.1777 1.82161 14.178 1.82161 14.1783 1.82161C14.8345 2.47781 14.8345 3.52219 14.1783 4.17839L13.3702 4.98649L11.0134 2.62972L11.8215 1.82161C12.149 1.49397 12.5745 1.33008 12.9999 1.33008ZM10.1296 3.51351L12.4864 5.87028L4.95544 13.4012C4.93101 13.4255 4.90007 13.444 4.8651 13.4541L1.61803 14.3818L2.54577 11.134C2.54577 11.1337 2.54577 11.1334 2.54577 11.1331C2.55532 11.0995 2.57282 11.0695 2.59867 11.0436L10.1296 3.51351Z" fill="#0F0743"/>
</svg>
