<svg width="16" height="16" viewBox="0 0 16 16" fill="none" xmlns="http://www.w3.org/2000/svg">
<path d="M11.7688 0.0573685C10.7673 0.0852771 9.77411 0.480617 9.01246 1.24226C7.96194 2.29278 7.6457 3.77618 7.99196 5.12247L3.58115 9.53409C2.65972 9.45653 1.70996 9.68942 1.00709 10.3918C0.0542224 11.3447 -0.18571 12.7511 0.299084 13.9303C0.338167 14.0254 0.400142 14.1095 0.479511 14.175C0.558879 14.2405 0.653185 14.2853 0.754059 14.3056C0.854934 14.3259 0.959257 14.321 1.05777 14.2913C1.15628 14.2616 1.24594 14.208 1.31878 14.1353L2.46298 12.9911C2.61847 12.8356 2.85274 12.8356 3.00823 12.9911C3.16372 13.1466 3.16372 13.3817 3.00823 13.5372L1.86484 14.6806C1.79214 14.7534 1.73854 14.843 1.70877 14.9414C1.67901 15.0399 1.67401 15.1442 1.69421 15.2451C1.71442 15.3459 1.7592 15.4403 1.8246 15.5197C1.89 15.5991 1.97398 15.6611 2.0691 15.7003C3.24782 16.1849 4.65461 15.9458 5.60752 14.9931L5.60833 14.9923C6.31125 14.2897 6.54366 13.3401 6.46608 12.419L10.8785 8.0074C12.2246 8.35333 13.7068 8.03721 14.7571 6.98689C15.9177 5.82629 16.2287 4.12971 15.684 2.68269C15.6472 2.58484 15.5865 2.49777 15.5074 2.42945C15.4282 2.36114 15.3332 2.31376 15.2311 2.29166C15.1289 2.26955 15.0228 2.27343 14.9225 2.30293C14.8222 2.33243 14.7309 2.38662 14.657 2.46053L13.0156 4.10196C12.7022 4.4153 12.2123 4.41518 11.8982 4.10196C11.5847 3.78843 11.5844 3.29784 11.8982 2.9838L13.5388 1.34318C13.6128 1.2693 13.667 1.17806 13.6965 1.07782C13.7261 0.977571 13.73 0.871513 13.708 0.769346C13.686 0.667179 13.6387 0.572164 13.5705 0.492993C13.5023 0.413823 13.4153 0.353023 13.3175 0.316158C12.9557 0.179976 12.5784 0.0973118 12.1977 0.0679479C12.0549 0.0569364 11.9119 0.0533815 11.7688 0.0573685ZM11.781 1.3326L11.0136 2.10001C10.2224 2.89181 10.2221 4.19429 11.0136 4.98575C11.0139 4.98575 11.0141 4.98575 11.0144 4.98575C11.8062 5.77695 13.1079 5.77722 13.8993 4.98575L14.6676 4.21753C14.6439 4.901 14.398 5.57841 13.8733 6.1031C13.0639 6.9125 11.8945 7.12051 10.8932 6.74357C10.7807 6.70122 10.6583 6.6922 10.5408 6.71761C10.4234 6.74301 10.3157 6.80175 10.2307 6.8868L5.88095 11.2366L6.30983 11.6654C6.21398 11.5697 6.08962 11.5076 5.95547 11.4887C5.82131 11.4697 5.68463 11.4949 5.56601 11.5603C5.44738 11.6258 5.35324 11.728 5.29776 11.8516C5.24228 11.9753 5.22846 12.1135 5.25839 12.2457C5.40644 12.8964 5.23322 13.6004 4.72454 14.1085C4.72427 14.1085 4.724 14.1085 4.72373 14.1085C4.41985 14.4125 4.04575 14.5897 3.6552 14.6578L3.89283 14.421C4.52651 13.7873 4.52651 12.741 3.89283 12.1073C3.25916 11.4737 2.21287 11.4737 1.5792 12.1073L1.34238 12.3442C1.41067 11.9539 1.58718 11.5793 1.89088 11.2756C2.39948 10.7674 3.10392 10.5938 3.75449 10.7418C3.88663 10.7717 4.02492 10.7579 4.14852 10.7024C4.27213 10.6469 4.37437 10.5528 4.43983 10.4342C4.50529 10.3155 4.53044 10.1789 4.51148 10.0447C4.49253 9.91055 4.4305 9.78619 4.33473 9.69034L4.7636 10.1192L9.11337 5.76863C9.19842 5.68368 9.25716 5.576 9.28256 5.45851C9.30797 5.34102 9.29895 5.2187 9.2566 5.1062C8.87966 4.10488 9.08686 2.93545 9.89625 2.12605C10.4207 1.60158 11.0978 1.35648 11.781 1.3326Z" fill="#0F0743"/>
</svg>
