<svg width="17" height="19" viewBox="0 0 17 19" fill="none" xmlns="http://www.w3.org/2000/svg">
<path d="M8.00003 0.666687C6.58544 0.666687 5.44667 1.77958 5.33402 3.16669H0.708364C0.625545 3.16552 0.543318 3.18082 0.466463 3.2117C0.389607 3.24258 0.319657 3.28843 0.260676 3.34659C0.201695 3.40474 0.15486 3.47404 0.122892 3.55045C0.0909249 3.62686 0.0744629 3.70886 0.0744629 3.79169C0.0744629 3.87451 0.0909249 3.95652 0.122892 4.03293C0.15486 4.10934 0.201695 4.17863 0.260676 4.23679C0.319657 4.29494 0.389607 4.34079 0.466463 4.37167C0.543318 4.40256 0.625545 4.41786 0.708364 4.41669H1.40823L2.81774 15.3347C2.96482 16.4738 3.94236 17.3334 5.09069 17.3334H7.84704C7.49079 16.9629 7.18779 16.5429 6.94779 16.0834H5.08988C4.56779 16.0834 4.12424 15.6926 4.05716 15.1751L2.66881 4.41669H13.3304L12.8332 8.27574C13.257 8.36157 13.6596 8.50145 14.0409 8.6802L14.591 4.41669H15.2917C15.3745 4.41786 15.4567 4.40256 15.5336 4.37167C15.6105 4.34079 15.6804 4.29494 15.7394 4.23679C15.7984 4.17863 15.8452 4.10934 15.8772 4.03293C15.9091 3.95652 15.9256 3.87451 15.9256 3.79169C15.9256 3.70886 15.9091 3.62686 15.8772 3.55045C15.8452 3.47404 15.7984 3.40474 15.7394 3.34659C15.6804 3.28843 15.6105 3.24258 15.5336 3.2117C15.4567 3.18082 15.3745 3.16552 15.2917 3.16669H10.666C10.5534 1.77958 9.41462 0.666687 8.00003 0.666687ZM8.00003 1.91669C8.73838 1.91669 9.31334 2.45962 9.41686 3.16669H6.5832C6.68672 2.45962 7.26168 1.91669 8.00003 1.91669ZM11.75 9.00002C9.21878 9.00002 7.1667 11.0521 7.1667 13.5834C7.1667 16.1146 9.21878 18.1667 11.75 18.1667C14.2813 18.1667 16.3334 16.1146 16.3334 13.5834C16.3334 11.0521 14.2813 9.00002 11.75 9.00002ZM13.8334 11.0834C13.8806 11.0834 13.9275 11.0942 13.9725 11.1102C13.9885 11.1159 14.0036 11.1245 14.0189 11.1322C14.0576 11.1517 14.0957 11.1731 14.128 11.2054C14.1622 11.2397 14.1854 11.2805 14.2053 11.3218C14.211 11.3338 14.2178 11.3453 14.2224 11.3576C14.2561 11.4498 14.2567 11.5503 14.2232 11.6424C14.2182 11.656 14.2101 11.6684 14.2036 11.6815C14.1839 11.7217 14.1615 11.7612 14.128 11.7946L12.3392 13.5834C13.2538 14.4975 14.0913 15.3354 14.128 15.3721C14.1608 15.4049 14.1824 15.4442 14.202 15.4836C14.2091 15.498 14.2178 15.5117 14.2232 15.5267C14.2395 15.5722 14.25 15.6189 14.25 15.6667C14.25 15.7139 14.2392 15.7608 14.2232 15.8058C14.2175 15.8219 14.2089 15.8369 14.2012 15.8522C14.1817 15.8909 14.1603 15.929 14.128 15.9613C14.0937 15.9955 14.0529 16.0187 14.0116 16.0386C13.9996 16.0443 13.9881 16.0512 13.9758 16.0557C13.8836 16.0894 13.7831 16.09 13.6909 16.0565C13.6774 16.0515 13.665 16.0434 13.6519 16.037C13.6117 16.0172 13.5722 15.9948 13.5388 15.9613L11.75 14.1725L9.9613 15.9613C9.92848 15.9941 9.88915 16.0157 9.8498 16.0353C9.83539 16.0425 9.82165 16.0511 9.80667 16.0565C9.76117 16.0728 9.71445 16.0834 9.6667 16.0834C9.61946 16.0834 9.57256 16.0725 9.52754 16.0565C9.51153 16.0508 9.49651 16.0422 9.48115 16.0345C9.4425 16.015 9.40436 15.9936 9.3721 15.9613C9.33785 15.927 9.31464 15.8862 9.29479 15.8449C9.28907 15.8329 9.28222 15.8214 9.2777 15.8091C9.24395 15.7169 9.24334 15.6164 9.27689 15.5243C9.28184 15.5107 9.29 15.4983 9.29642 15.4852C9.31614 15.445 9.3386 15.4055 9.3721 15.3721C9.40877 15.3354 10.2463 14.4975 11.1608 13.5834L9.3721 11.7946C9.33929 11.7618 9.31764 11.7225 9.29805 11.6831C9.29092 11.6687 9.28225 11.655 9.27689 11.64C9.26055 11.5945 9.25003 11.5478 9.25003 11.5C9.25003 11.4528 9.26089 11.4059 9.27689 11.3609C9.28258 11.3448 9.29115 11.3298 9.29886 11.3145C9.31836 11.2758 9.33976 11.2377 9.3721 11.2054C9.41112 11.1664 9.45695 11.1379 9.50475 11.1175C9.51217 11.1144 9.51999 11.1129 9.52754 11.1102C9.56725 11.096 9.60798 11.0883 9.64961 11.0866C9.65884 11.0862 9.66804 11.0848 9.67728 11.085C9.72451 11.0862 9.77176 11.0946 9.81644 11.1118C9.82409 11.1148 9.83091 11.1198 9.83841 11.1232C9.88257 11.1434 9.92499 11.169 9.9613 11.2054C9.99796 11.2421 10.8359 12.0796 11.75 12.9942L13.5388 11.2054C13.5716 11.1726 13.6109 11.151 13.6503 11.1314C13.6647 11.1242 13.6784 11.1156 13.6934 11.1102C13.7389 11.0939 13.7856 11.0834 13.8334 11.0834Z" fill="#F61919"/>
</svg>
