<svg width="21" height="21" viewBox="0 0 21 21" fill="none" xmlns="http://www.w3.org/2000/svg">
<path d="M10.5 0C4.70138 0 0 4.70138 0 10.5C0 16.2986 4.70138 21 10.5 21C16.2986 21 21 16.2986 21 10.5C21 4.70138 16.2986 0 10.5 0ZM16.3686 8.49362L9.75362 15.1086C9.58913 15.2731 9.36687 15.365 9.135 15.365C8.90312 15.365 8.68 15.2731 8.51637 15.1086L5.495 12.0872C5.15287 11.7451 5.15287 11.1921 5.495 10.85C5.83712 10.5079 6.39013 10.5079 6.73225 10.85L9.135 13.2528L15.1314 7.25638C15.4735 6.91425 16.0265 6.91425 16.3686 7.25638C16.7108 7.5985 16.7108 8.1515 16.3686 8.49362Z" fill="white"/>
</svg>
