<svg xmlns="http://www.w3.org/2000/svg"  viewBox="0 0 472.001 472.001" width="464px" height="464px"><path fill="#cbe3fa" d="M464.001,23h-68.01c-0.17-10.52-8.76-19-19.33-19h-30.32c-10.68,0-19.34,8.66-19.34,19.34v-2.38	c-194.82-9.25-291.49,154.98-268.53,329.26c-7.816,13.318-14.59,30.12-19.198,49.885c-0.344,1.476-1.484,2.639-2.957,2.993	C-6.253,413.344,2.895,468,39.111,468h227.36c34.95,0,41.294-45.669,9.687-54.507c-2.746-0.768-3.777-4.078-2.028-6.331	c9.854-12.698,12.071-27.724,5.912-37.292c-3.57-5.55-10.27-9.78-18.54-11.83c-2.316-62.092,23.005-119.594,65.5-160.2v-3.18	c0,10.68,8.66,19.34,19.34,19.34h30.32c10.57,0,19.16-8.48,19.33-19h68.01c4.418,0,8-3.582,8-8V31	C472.001,26.582,468.419,23,464.001,23z"/><path fill="#80aaff" d="M327.001,197.84c-42.486,40.597-67.816,98.095-65.5,160.2c-10.917-2.719-24.553-1.626-37.261,5.275	c-2.971,1.613-6.439-1.052-5.778-4.368c4.027-20.21,2.165-38.053-7.551-43.598c-12.81-7.304-41.963,5.164-67.434,36.803	c-1.909,2.371-5.656,1.849-6.812-0.967c-5.046-12.287-16.09-33.894-32.724-35.836c-14.13-1.64-31.46,11.01-45.47,34.87	c-22.96-174.28,73.71-338.51,268.53-329.26V197.84z"/><path fill="#585966" d="M396.001,23h68c4.418,0,8,3.582,8,8v156c0,4.418-3.582,8-8,8c-73.244,0-68,0.168-68-0.34	C396.001,20.973,395.9,23,396.001,23z"/><path fill="#719efa" d="M285.791,90.422c-3.264,0-6.329-2.012-7.514-5.256c-1.517-4.15,0.618-8.743,4.768-10.26	c0.484-0.177,0.968-0.343,1.429-0.497c4.192-1.396,8.722,0.871,10.117,5.063c1.396,4.192-0.871,8.722-5.063,10.117	C288.345,89.985,287.424,90.422,285.791,90.422z"/><path fill="#719efa" d="M198.651,144.85c-7.047,0-10.703-8.569-5.681-13.633c16.811-16.952,36.339-31.263,58.043-42.537	c3.922-2.037,8.75-0.509,10.787,3.412s0.509,8.75-3.412,10.787c-20.229,10.507-38.417,23.832-54.057,39.604	C202.767,144.06,200.709,144.85,198.651,144.85z"/><path fill="#719efa" d="M121.006,248.002c-5.232,0-9.058-4.941-7.751-10.001c7.014-27.173,18.665-52.424,34.629-75.052	c2.548-3.61,7.54-4.472,11.149-1.925c3.61,2.547,4.472,7.539,1.925,11.149c-14.845,21.042-25.682,44.535-32.21,69.828	C127.816,245.607,124.567,248.002,121.006,248.002z"/><path fill="#719efa" d="M219.584,214.211c-6.418,0-10.29-7.296-6.524-12.621c13.032-18.422,30.679-34.181,51.035-45.571	c3.857-2.157,8.73-0.78,10.888,3.075c2.157,3.856,0.781,8.73-3.075,10.888c-18.289,10.234-34.122,24.359-45.786,40.849	C224.563,213.034,222.092,214.211,219.584,214.211z"/><path fill="#719efa" d="M196.01,271.002c-4.99,0-8.749-4.501-7.888-9.389c0.843-4.784,1.937-9.605,3.252-14.329	c1.186-4.257,5.595-6.748,9.853-5.561c4.256,1.185,6.746,5.596,5.561,9.853c-1.177,4.226-2.155,8.536-2.908,12.811	C203.196,268.269,199.82,271.002,196.01,271.002z"/><path fill="#719efa" d="M114.009,289.002c-5.072,0-8.839-4.637-7.853-9.57l2-10c0.867-4.332,5.079-7.143,9.414-6.276	c4.333,0.867,7.142,5.081,6.276,9.414l-2,10C121.085,286.372,117.744,289.002,114.009,289.002z"/><path fill="#cbe3fa" d="M317.008,387.002c-5.09,0-8.893-4.685-7.833-9.667c3.942-18.507,18.314-32.873,37.849-35.274	c4.379-0.533,8.377,2.579,8.916,6.965c0.539,4.385-2.58,8.377-6.965,8.916c-12.654,1.555-21.609,10.792-24.151,22.726	C324.025,384.426,320.704,387.002,317.008,387.002z"/><path fill="#cbe3fa" d="M17.999,368c-4.372,0-7.943-3.517-7.998-7.901c-0.118-9.552-3.046-18.68-8.544-26.497	c-2.542-3.614-1.672-8.604,1.942-11.146c3.615-2.541,8.604-1.672,11.146,1.942c7.149,10.167,11.293,22.363,11.456,35.503	C26.055,364.349,22.468,368,17.999,368z"/><path fill="#cbe3fa" d="M331.003,439c-7.231,0-10.821-8.956-5.396-13.908c12.575-11.48,29.505-15.491,45.185-11.889	c4.306,0.989,6.995,5.282,6.005,9.588c-0.989,4.307-5.282,6.995-9.588,6.005c-10.743-2.468-22.252,0.295-30.815,8.111	C334.86,438.309,332.928,439,331.003,439z"/><path fill="#eef7ff" d="M208.116,357.9c-2.58,1.945-5.187,4.085-7.8,6.417c-24.53,21.897-56.974-18.53-30.411-37.734	c16.952-12.255,32.541-16.058,41.006-11.233C221.802,321.564,224.704,345.395,208.116,357.9z"/><path fill="#eef7ff" d="M129.599,336.804c2.679,4.539,1.131,10.405-3.422,13.062c-9.485,5.535-19.206,15.883-27.707,30.354	c-7.401,12.611-13.869,28.348-18.447,46.767c-0.808,3.251-3.234,5.884-6.441,6.852c-15.111,4.558-23.033,15.049-25.055,26.258	c-0.824,4.569-4.775,7.903-9.417,7.903c-36.216,0-45.364-54.656-2.795-64.902c1.473-0.355,2.613-1.518,2.957-2.993	c4.608-19.765,11.382-36.568,19.198-49.885c14.01-23.86,31.34-36.51,45.47-34.87C115.008,316.642,123.601,326.641,129.599,336.804z"/><path fill="#9cbcff" d="M327.001,20.96v23.314c0,4.107-3.114,7.524-7.199,7.957	C180.745,66.951,102.618,179.026,95.653,310.659c-0.161,3.043-2.071,5.708-4.879,6.891c-10.893,4.592-22.429,15.85-32.304,32.67	C35.511,175.94,132.181,11.71,327.001,20.96z"/><path fill="#eef7ff" d="M376.907,24c-11.941,0-19.906,9.165-19.906,19.34v160c0,5.887-4.773,10.66-10.66,10.66	c-10.681,0-19.34-8.659-19.34-19.34V23.34c0-10.681,8.659-19.34,19.34-19.34c0,0,31.037,0.01,31.393,0.03	C390.51,4.737,389.703,24,376.907,24z"/><path fill="#6e6f80" d="M472.001,31v14c0,4.418-3.582,8-8,8h-60c-4.418,0-8-3.582-8-8c0-23.088,0.005-21.831-0.01-22h68.01	C468.419,23,472.001,26.582,472.001,31z"/></svg>