<svg xmlns="http://www.w3.org/2000/svg"  viewBox="0 0 520 520" width="256px" height="256px"><path fill="#414a56" d="M445.58,407.119c-5.737-5.738-169.024-169.024-171.23-171.23l-0.479-0.31 c-8.785,13.936-21.642,26.692-35.18,35.189l0.3,0.471c3.302,3.302,165.915,165.915,171.239,171.24 c9.761,9.76,25.591,9.76,35.351,0c4.88-4.891,7.319-11.29,7.319-17.681C452.899,418.399,450.46,411.999,445.58,407.119z"/><path fill="#57606f" d="M274.35,235.889l36.88,36.88l-5.199,5.2l-28.28,28.28l-1.87,1.88l-36.89-36.89l-0.3-0.471 c0.35-0.22,0.689-0.439,1.029-0.659c1.11-0.73,2.221-1.49,3.32-2.271c5.32-3.74,10.4-7.99,15.16-12.75s9-9.84,12.75-15.16 c0.77-1.1,1.529-2.2,2.26-3.32c0.22-0.34,0.439-0.68,0.66-1.029L274.35,235.889z"/><path fill="#da5359" d="M259.45,70.169c3.439,3.45,5.17,7.96,5.17,12.479c0,4.511-1.73,9.03-5.17,12.48L97.23,257.339 c-6.891,6.9-18.061,6.9-24.96,0c-3.44-3.44-5.17-7.96-5.17-12.48c0-4.51,1.729-9.02,5.17-12.47l162.22-162.22 C241.38,63.278,252.561,63.278,259.45,70.169z"/><path fill="#ef727a" d="M259.45,95.129c38.75,38.75,43.97,98.33,15.67,142.7c-0.221,0.35-0.44,0.689-0.66,1.029 c-0.73,1.12-1.49,2.221-2.26,3.32c-3.75,5.32-7.99,10.4-12.75,15.16s-9.84,9.01-15.16,12.75c-1.1,0.78-2.21,1.54-3.32,2.271 c-0.34,0.22-0.68,0.439-1.029,0.659c-44.37,28.301-103.96,23.08-142.71-15.68L259.45,95.129z"/><path fill="#414a56" d="M444.17,137.929c1.81,1.811,2.93,4.311,2.93,7.07s-1.12,5.26-2.93,7.069 c-1.8,1.811-4.3,2.931-7.07,2.931c-5.52,0-10-4.48-10-10c0-2.76,1.12-5.26,2.931-7.07c1.81-1.81,4.31-2.93,7.069-2.93 C439.87,134.999,442.37,136.119,444.17,137.929z"/><polygon fill="#414a56" points="435.39,279.139 421.25,293.279 407.1,279.139 421.25,264.999"/><rect width="19.996" height="19.996" x="302.962" y="79.14" fill="#414a56" transform="rotate(-45.001 312.96 89.143)"/><polygon fill="#414a56" points="305.39,440.859 291.25,454.999 277.1,440.859 291.25,426.719"/><path fill="#414a56" d="M224.18,367.929c1.811,1.811,2.931,4.311,2.931,7.07s-1.12,5.26-2.931,7.07 c-1.81,1.81-4.31,2.93-7.069,2.93c-5.53,0-10-4.48-10-10c0-2.76,1.12-5.26,2.93-7.07c1.811-1.81,4.311-2.93,7.07-2.93 S222.37,366.119,224.18,367.929z"/><path fill="#414a56" d="M104.18,377.929c1.811,1.811,2.931,4.311,2.931,7.07s-1.12,5.26-2.931,7.07 c-1.81,1.81-4.31,2.93-7.069,2.93c-5.53,0-10-4.48-10-10c0-2.76,1.12-5.26,2.93-7.07c1.811-1.81,4.311-2.93,7.07-2.93 S102.37,376.119,104.18,377.929z"/></svg>